<svg xmlns="http://www.w3.org/2000/svg" xmlns:xlink="http://www.w3.org/1999/xlink" viewBox="0 0 100 125" version="1.1" x="0px" y="0px"><title>Artboard 2 Copy 10</title><desc>Created with Sketch.</desc><g stroke="none" stroke-width="1" fill="none" fill-rule="evenodd"><g fill="#000000"><path d="M49.7032894,61 C57.0291615,61 63.7929239,64.370227 68.2230576,70.0319919 C69.2440744,71.3368638 71.1295798,71.5669738 72.4344517,70.545957 C73.7393236,69.5249403 73.9694336,67.6394349 72.9484168,66.334563 C67.3929162,59.2345654 58.8944992,55 49.7032894,55 C41.2294988,55 33.3281167,58.5962658 27.7701369,64.7718388 C26.6617638,66.0033724 26.7616051,67.9002416 27.9931388,69.0086147 C29.2246724,70.1169878 31.1215416,70.0171465 32.2299147,68.7856129 C36.6616795,63.8613979 42.948478,61 49.7032894,61 Z M50,90 C72.09139,90 90,72.09139 90,50 C90,27.90861 72.09139,10 50,10 C27.90861,10 10,27.90861 10,50 C10,72.09139 27.90861,90 50,90 Z M64,46 C66.7614237,46 69,43.7614237 69,41 C69,38.2385763 66.7614237,36 64,36 C61.2385763,36 59,38.2385763 59,41 C59,43.7614237 61.2385763,46 64,46 Z M36,46 C38.7614237,46 41,43.7614237 41,41 C41,38.2385763 38.7614237,36 36,36 C33.2385763,36 31,38.2385763 31,41 C31,43.7614237 33.2385763,46 36,46 Z"/></g></g></svg>