<svg xmlns="http://www.w3.org/2000/svg" xmlns:xlink="http://www.w3.org/1999/xlink" version="1.1" x="0px" y="0px" viewBox="0 0 100 125" enable-background="new 0 0 100 100" xml:space="preserve"><path d="M95,50c0,24.9-20.1,45-45,45C25.1,95,5,74.9,5,50S25.1,5,50,5C74.9,5,95,25.1,95,50z M81.3,58.4c0.9-2.5-0.3-5.2-2.8-6.1  c-2.5-0.9-5.2,0.3-6.1,2.8C68.9,64.3,59.9,70.6,50,70.6c-9.9,0-18.9-6.2-22.4-15.5c-0.9-2.5-3.7-3.7-6.1-2.8  c-2.5,0.9-3.7,3.7-2.8,6.1c4.9,13,17.5,21.7,31.3,21.7C63.8,80.1,76.4,71.4,81.3,58.4z M34.3,23.9c-3.9,0-7.1,3.2-7.1,7.1  c0,3.9,3.2,7.1,7.1,7.1c3.9,0,7.1-3.2,7.1-7.1C41.4,27,38.2,23.9,34.3,23.9z M65.7,23.9c-3.9,0-7.1,3.2-7.1,7.1  c0,3.9,3.2,7.1,7.1,7.1c3.9,0,7.1-3.2,7.1-7.1C72.8,27,69.6,23.9,65.7,23.9z"/></svg>